Coordinates
version=1
nRows=10
nColumns=40
inDegrees=yes

Units are S.I. units (second, meters, Newtons, ...)
If the header above contains a line with 'inDegrees', this indicates whether rotational values are in degrees (yes) or radians (no).

endheader
time	pelvis_tilt	pelvis_list	pelvis_rotation	pelvis_tx	pelvis_ty	pelvis_tz	hip_flexion_r	hip_adduction_r	hip_rotation_r	knee_angle_r	knee_angle_r_beta	ankle_angle_r	subtalar_angle_r	mtp_angle_r	hip_flexion_l	hip_adduction_l	hip_rotation_l	knee_angle_l	knee_angle_l_beta	ankle_angle_l	subtalar_angle_l	mtp_angle_l	lumbar_extension	lumbar_bending	lumbar_rotation	arm_flex_r	arm_add_r	arm_rot_r	elbow_flex_r	pro_sup_r	wrist_flex_r	wrist_dev_r	arm_flex_l	arm_add_l	arm_rot_l	elbow_flex_l	pro_sup_l	wrist_flex_l	wrist_dev_l
      1.93000000	      0.80323573	     -4.04059705	     89.74665656	      0.33032374	      0.88021960	      0.29893954	      8.81960340	      4.82679041	     -6.41579417	     11.65096299	      0.20334767	     -2.82256238	      0.00000000	      0.00000000	     15.02378072	    -12.01836999	    -13.07617687	     40.55653443	      0.70784506	      1.41903824	      0.00000000	      0.00000000	     -1.65443405	      6.72547449	      2.96742947	     -2.86644179	    -10.18314163	      1.02275793	     44.93783630	     89.14416432	    -24.53349113	      4.01408177	     -5.50392483	     -6.44717830	      8.14491865	     41.36315033	     89.25865869	    -23.87457392	     -1.88100726
      1.94000000	      0.56514582	     -3.92581603	     89.74528796	      0.33068037	      0.88020721	      0.29551138	      8.58998613	      4.60396971	     -6.33672326	     11.93771918	      0.20835250	     -2.42878440	      0.00000000	      0.00000000	     15.30851728	    -11.67653198	    -12.99267364	     39.78483293	      0.69437633	      1.83150481	      0.00000000	      0.00000000	     -1.67916744	      6.45039498	      2.91392201	     -3.04996352	    -10.13016347	      1.22493755	     44.61755348	     89.13947683	    -24.51264631	      4.05335759	     -5.51773169	     -6.34625002	      8.03201802	     41.04420638	     89.24341741	    -23.90897209	     -1.85782270
      1.95000000	      0.39182182	     -3.81405403	     89.74633502	      0.33123190	      0.88017029	      0.29213452	      8.35576905	      4.47436002	     -6.23589245	     12.19299731	      0.21280795	     -2.11405814	      0.00000000	      0.00000000	     15.60715550	    -11.44219705	    -12.96653796	     39.03961659	      0.68136985	      2.09431066	      0.00000000	      0.00000000	     -1.73099300	      6.23832944	      2.84615442	     -3.23618253	    -10.02300638	      1.37710927	     44.32979393	     89.13766203	    -24.50693599	      4.08606839	     -5.56690960	     -6.29540383	      7.96492958	     40.80185257	     89.24282649	    -23.93510229	     -1.84346184
      1.96000000	      0.23815490	     -3.70222972	     89.74753627	      0.33175037	      0.88014922	      0.28875564	      8.10683554	      4.35861220	     -6.15851879	     12.42108591	      0.21678885	     -1.81495493	      0.00000000	      0.00000000	     15.89674636	    -11.22605163	    -12.98957284	     38.28459771	      0.66819228	      2.33904342	      0.00000000	      0.00000000	     -1.78106538	      6.03605851	      2.80168470	     -3.45345734	     -9.92323811	      1.50102567	     44.00355885	     89.13931194	    -24.50944770	      4.12645367	     -5.61123594	     -6.25097597	      7.89566132	     40.54294331	     89.25676689	    -23.95898451	     -1.82274671
      1.97000000	      0.06787069	     -3.58768614	     89.74977023	      0.33225565	      0.88013629	      0.28534163	      7.84113068	      4.22187703	     -6.11155944	     12.63664152	      0.22055100	     -1.49131857	      0.00000000	      0.00000000	     16.14419314	    -10.98314332	    -13.04422551	     37.47452974	      0.65405393	      2.57339259	      0.00000000	      0.00000000	     -1.81600560	      5.81482748	      2.75699512	     -3.67094263	     -9.79173310	      1.62219038	     43.62971813	     89.13276143	    -24.51716225	      4.17307828	     -5.66334794	     -6.18663664	      7.84350924	     40.27101241	     89.24113400	    -23.97880286	     -1.80103047
      1.98000000	     -0.13099508	     -3.46342407	     89.74220845	      0.33274590	      0.88015593	      0.28193504	      7.56136799	      4.04950973	     -6.04480070	     12.84590155	      0.22420328	     -1.15972119	      0.00000000	      0.00000000	     16.35826344	    -10.71867626	    -13.21437427	     36.64030237	      0.63949392	      2.77023008	      0.00000000	      0.00000000	     -1.86850538	      5.55470884	      2.78364404	     -3.91590240	     -9.67225615	      1.74986937	     43.18837230	     89.13110260	    -24.52947831	      4.22560547	     -5.69079137	     -6.12222795	      7.79626741	     40.02512288	     89.23830665	    -23.99678710	     -1.78778649
      1.99000000	     -0.72877072	     -3.13296132	     89.74224736	      0.33308880	      0.88052415	      0.27854761	      7.05387888	      3.42174109	     -6.03680035	     13.07417834	      0.22818746	     -0.57617957	      0.00000000	      0.00000000	     16.28709606	     -9.97961844	    -13.49780106	     35.69652233	      0.62302185	      2.75593931	      0.00000000	      0.00000000	     -2.16700826	      4.83832624	      2.70580058	     -4.04067334	     -9.49839380	      2.08642132	     42.59469991	     89.12640131	    -24.59849816	      4.18038857	     -5.71612561	     -6.14901331	      7.80178428	     39.80847757	     89.23340390	    -24.02977376	     -1.84900068
      2.00000000	     -0.87712604	     -2.92139589	     89.73942685	      0.33354685	      0.88068936	      0.27515343	      6.62546015	      3.30074659	     -6.02749887	     13.17462140	      0.22994052	     -0.32493647	      0.00000000	      0.00000000	     16.38292677	     -9.75588796	    -13.72696784	     34.83487939	      0.60798334	      2.82265184	      0.00000000	      0.00000000	     -2.33022799	      4.63803440	      2.71346113	     -4.26061782	     -9.36670259	      2.21333690	     42.09874584	     89.12349215	    -24.69185208	      4.14542319	     -5.76060123	     -6.07274649	      7.72663534	     39.57781581	     89.23156663	    -24.07323647	     -1.85777130
      2.01000000	     -0.84971641	     -2.83150364	     89.73739548	      0.33404424	      0.88060986	      0.27191649	      6.35796044	      3.37712426	     -5.96900222	     13.29965087	      0.23212270	     -0.15318191	      0.00000000	      0.00000000	     16.67357891	     -9.72895106	    -13.88732755	     34.06717743	      0.59458441	      2.88954877	      0.00000000	      0.00000000	     -2.38614297	      4.62536782	      2.76065754	     -4.53365704	     -9.25502503	      2.24943778	     41.70022265	     89.11826473	    -24.72076852	      4.18818780	     -5.83313318	     -5.99156124	      7.70168464	     39.45108345	     89.22863876	    -24.08732544	     -1.84863701
      2.02000000	     -0.91133887	     -2.74163163	     89.73578774	      0.33449238	      0.88054984	      0.26866333	      6.06714043	      3.35076021	     -5.95612492	     13.38145800	      0.23355050	      0.07618083	      0.00000000	      0.00000000	     16.93112078	     -9.59245219	    -14.12239944	     33.25799764	      0.58046156	      2.95194548	      0.00000000	      0.00000000	     -2.42344335	      4.51533794	      2.82225383	     -4.80457619	     -9.13820392	      2.32225094	     41.19651919	     89.12000010	    -24.74093614	      4.24637077	     -5.87911243	     -5.91700622	      7.66152842	     39.24688383	     89.23980673	    -24.10064325	     -1.83249850
